<svg viewBox="0 0 16 16" xmlns="http://www.w3.org/2000/svg">
    <symbol viewBox="0 0 16 16" id="tags">
        <title>tags</title>
        <path d="M3 2v4.586l7 7L14.586 9l-7-7H3zM2 2a1 1 0 0 1 1-1h4.586a1 1 0 0 1 .707.293l7 7a1 1 0 0 1 0 1.414l-4.586 4.586a1 1 0 0 1-1.414 0l-7-7A1 1 0 0 1 2 6.586V2z"/>
        <path d="M5.5 5a.5.5 0 1 1 0-1 .5.5 0 0 1 0 1zm0 1a1.5 1.5 0 1 0 0-3 1.5 1.5 0 0 0 0 3zM1 7.086a1 1 0 0 0 .293.707L8.75 15.25l-.043.043a1 1 0 0 1-1.414 0l-7-7A1 1 0 0 1 0 7.586V3a1 1 0 0 1 1-1v5.086z"/>
    </symbol>
    <symbol viewBox="0 0 16 16" id="tag">
        <title>tag</title>
        <path d="M11.3,4.3C11.1,4.1,10.9,4,10.6,4H3C2.5,4,2,4.5,2,5v6c0,0.6,0.5,1,1,1h7.6c0.3,0,0.5-0.1,0.7-0.3L15,8L11.3,4.3z M10,9C9.5,9,9,8.5,9,8s0.5-1,1-1s1,0.5,1,1S10.5,9,10,9z"/>
    </symbol>
    <symbol viewBox="0 0 16 16" id="bookmark">
        <title>bookmark</title>
        <path d="M2 2v13.5a.5.5 0 0 0 .74.439L8 13.069l5.26 2.87A.5.5 0 0 0 14 15.5V2a2 2 0 0 0-2-2H4a2 2 0 0 0-2 2z"/>
    </symbol>
    <symbol viewBox="0 0 494.34 494.34" id="book">
        <title>book</title>
        <path d="M449.585,457.418V16.784C449.585,3.372,436.204,0,432.78,0S95.173,0,95.173,0
		c-50.4,0-50.438,46.64-50.438,46.64v429.816c0,9.852,8.013,17.884,17.958,17.884h322.349c9.852,0,17.863-8.032,17.863-17.884
		l28.738-0.075C450.929,476.399,449.585,457.418,449.585,457.418z M317.64,148.898H132.766v-34.933H317.64V148.898z
		 M411.732,440.171c-6.875,0-8.826,0.031-8.826,0.031V320.606V65.337c0-9.927-8.014-17.939-17.863-17.939L80.018,47.303
		c0-12.295,12.611-18.546,18.47-18.546c3.995,0,304.4,0,304.4,0c19.059,0,18.508,16.784,18.508,16.784l0.02,383.78
		C421.415,431.824,422.325,440.171,411.732,440.171z"/>
    </symbol>
    <symbol viewBox="0 0 490 490" id="folder">
        <title>folder</title>
        <polygon points="56.8,193.3 0,426.2 433.2,426.2 490,193.3"/>
        <polygon points="433.2,169.6 433.2,130.3 174.2,130.3 131.5,63.8 0,63.8 0,326.3 38.2,169.6"/>
    </symbol>
    <symbol viewBox="0 0 32 32" id="horn">
        <title>horn</title>
        <path d="M20.4,2.9c-0.3-0.2-0.7-0.1-1,0.1L9.7,10H3c-0.6,0-1,0.4-1,1v10c0,0.6,0.4,1,1,1h6.7l9.7,7.1c0.2,0.1,0.4,0.2,0.6,0.2
		c0.2,0,0.3,0,0.5-0.1c0.3-0.2,0.5-0.5,0.5-0.9V3.8C21,3.4,20.8,3,20.4,2.9z"/>
        <path d="M27.1,9.3c-0.4-0.4-1-0.4-1.4,0s-0.4,1,0,1.4C27.2,12.1,28,14,28,16s-0.8,3.9-2.3,5.3c-0.4,0.4-0.4,1,0,1.4
		c0.2,0.2,0.5,0.3,0.7,0.3c0.2,0,0.5-0.1,0.7-0.3C29,20.9,30,18.6,30,16S29,11.1,27.1,9.3z"/>
        <path d="M24.7,12.7c-0.4-0.4-1-0.4-1.4,0.1c-0.4,0.4-0.3,1,0.1,1.4c0.5,0.5,0.8,1.2,0.8,1.9s-0.3,1.4-0.8,1.9
		c-0.4,0.4-0.4,1-0.1,1.4c0.2,0.2,0.5,0.3,0.7,0.3c0.2,0,0.5-0.1,0.7-0.3c1-0.9,1.5-2.1,1.5-3.3S25.6,13.5,24.7,12.7z"/>
    </symbol>
</svg>